<mxfile host="app.diagrams.net" modified="2023-06-26T13:49:09.072Z" agent="Mozilla/5.0 (Windows NT 10.0; Win64; x64) AppleWebKit/537.36 (KHTML, like Gecko) Chrome/114.0.0.0 Safari/537.36" etag="zaW-jhPByP1gttLJ_VyQ" version="21.5.0" type="github">
  <diagram name="Página-1" id="556-l5d-6H0CiQAVsGX7">
    <mxGraphModel dx="1114" dy="616" grid="1" gridSize="10" guides="1" tooltips="1" connect="1" arrows="1" fold="1" page="1" pageScale="1" pageWidth="827" pageHeight="1169" math="0" shadow="0">
      <root>
        <mxCell id="0" />
        <mxCell id="1" parent="0" />
        <mxCell id="XA8b1vicUPhusfsWDsah-5" style="edgeStyle=orthogonalEdgeStyle;rounded=0;orthogonalLoop=1;jettySize=auto;html=1;exitX=0.5;exitY=0.8;exitDx=0;exitDy=0;entryX=0.5;entryY=0;entryDx=0;entryDy=0;exitPerimeter=0;endArrow=open;endFill=0;" edge="1" parent="1" source="XA8b1vicUPhusfsWDsah-1" target="XA8b1vicUPhusfsWDsah-2">
          <mxGeometry relative="1" as="geometry" />
        </mxCell>
        <mxCell id="XA8b1vicUPhusfsWDsah-15" style="edgeStyle=orthogonalEdgeStyle;shape=connector;rounded=0;orthogonalLoop=1;jettySize=auto;html=1;exitX=1;exitY=0.5;exitDx=0;exitDy=0;entryX=1;entryY=0.5;entryDx=0;entryDy=0;labelBackgroundColor=default;strokeColor=default;fontFamily=Helvetica;fontSize=11;fontColor=default;endArrow=open;endFill=0;" edge="1" parent="1" source="XA8b1vicUPhusfsWDsah-2" target="XA8b1vicUPhusfsWDsah-13">
          <mxGeometry relative="1" as="geometry">
            <Array as="points">
              <mxPoint x="590" y="140" />
              <mxPoint x="590" y="355" />
            </Array>
          </mxGeometry>
        </mxCell>
        <mxCell id="XA8b1vicUPhusfsWDsah-1" value="" style="ellipse;html=1;shape=startState;fillColor=#000000;strokeColor=#000000;" vertex="1" parent="1">
          <mxGeometry x="384" y="40" width="30" height="30" as="geometry" />
        </mxCell>
        <mxCell id="XA8b1vicUPhusfsWDsah-12" style="edgeStyle=orthogonalEdgeStyle;shape=connector;rounded=0;orthogonalLoop=1;jettySize=auto;html=1;exitX=0.5;exitY=1;exitDx=0;exitDy=0;labelBackgroundColor=default;strokeColor=default;fontFamily=Helvetica;fontSize=11;fontColor=default;endArrow=open;endFill=0;" edge="1" parent="1" source="XA8b1vicUPhusfsWDsah-2" target="XA8b1vicUPhusfsWDsah-11">
          <mxGeometry relative="1" as="geometry" />
        </mxCell>
        <mxCell id="XA8b1vicUPhusfsWDsah-2" value="Visualização das atrações" style="rounded=1;whiteSpace=wrap;html=1;" vertex="1" parent="1">
          <mxGeometry x="339" y="110" width="120" height="60" as="geometry" />
        </mxCell>
        <mxCell id="XA8b1vicUPhusfsWDsah-14" style="edgeStyle=orthogonalEdgeStyle;shape=connector;rounded=0;orthogonalLoop=1;jettySize=auto;html=1;exitX=0.5;exitY=1;exitDx=0;exitDy=0;entryX=0.5;entryY=0;entryDx=0;entryDy=0;labelBackgroundColor=default;strokeColor=default;fontFamily=Helvetica;fontSize=11;fontColor=default;endArrow=open;endFill=0;" edge="1" parent="1" source="XA8b1vicUPhusfsWDsah-11" target="XA8b1vicUPhusfsWDsah-13">
          <mxGeometry relative="1" as="geometry" />
        </mxCell>
        <mxCell id="XA8b1vicUPhusfsWDsah-11" value="Digite o código da atração que deseja favoritar" style="rounded=1;whiteSpace=wrap;html=1;fontFamily=Helvetica;fontSize=11;fontColor=default;" vertex="1" parent="1">
          <mxGeometry x="339" y="230" width="120" height="60" as="geometry" />
        </mxCell>
        <mxCell id="XA8b1vicUPhusfsWDsah-13" value="" style="ellipse;html=1;shape=endState;fillColor=#000000;strokeColor=#000000;fontFamily=Helvetica;fontSize=11;fontColor=default;" vertex="1" parent="1">
          <mxGeometry x="384" y="340" width="30" height="30" as="geometry" />
        </mxCell>
      </root>
    </mxGraphModel>
  </diagram>
</mxfile>
